<svg xmlns="http://www.w3.org/2000/svg" version="1.1" xmlns:xlink="http://www.w3.org/1999/xlink" xmlns:svgjs="http://svgjs.dev/svgjs" viewBox="0 0 800 800" opacity="0.8"><g stroke-width="1.5" stroke="hsla(0, 0%, 67%, 1.00)" fill="none" stroke-linecap="round" transform="matrix(1,0,0,1,-5,-1680.667324066162)"><path d="M10,10C31.726190476190478,15,68.75,41.291666666666664,114.28571428571429,34C159.82142857142858,26.708333333333336,180.95238095238096,-27.291666666666668,228.57142857142858,-25C276.1904761904762,-22.708333333333332,295.2380952380953,40.208333333333336,342.8571428571429,45C390.4761904761905,49.791666666666664,409.5238095238095,2.583333333333333,457.14285714285717,-2C504.7619047619048,-6.583333333333333,523.8095238095239,28,571.4285714285714,23C619.047619047619,18,638.0952380952382,-26.625,685.7142857142858,-26C733.3333333333334,-25.375,776.1904761904761,15.166666666666668,800,26"></path><path d="M10,10C31.726190476190478,15,68.75,41.291666666666664,114.28571428571429,34C159.82142857142858,26.708333333333336,180.95238095238096,-27.291666666666668,228.57142857142858,-25C276.1904761904762,-22.708333333333332,295.2380952380953,40.208333333333336,342.8571428571429,45C390.4761904761905,49.791666666666664,409.5238095238095,2.583333333333333,457.14285714285717,-2C504.7619047619048,-6.583333333333333,523.8095238095239,28,571.4285714285714,23C619.047619047619,18,638.0952380952382,-26.625,685.7142857142858,-26C733.3333333333334,-25.375,776.1904761904761,15.166666666666668,800,26" transform="matrix(1,0,0,1,0,4142)"></path><path d="M10,10C31.726190476190478,15,68.75,41.291666666666664,114.28571428571429,34C159.82142857142858,26.708333333333336,180.95238095238096,-27.291666666666668,228.57142857142858,-25C276.1904761904762,-22.708333333333332,295.2380952380953,40.208333333333336,342.8571428571429,45C390.4761904761905,49.791666666666664,409.5238095238095,2.583333333333333,457.14285714285717,-2C504.7619047619048,-6.583333333333333,523.8095238095239,28,571.4285714285714,23C619.047619047619,18,638.0952380952382,-26.625,685.7142857142858,-26C733.3333333333334,-25.375,776.1904761904761,15.166666666666668,800,26" transform="matrix(1,0,0,1,0,4033)"></path><path d="M10,10C31.726190476190478,15,68.75,41.291666666666664,114.28571428571429,34C159.82142857142858,26.708333333333336,180.95238095238096,-27.291666666666668,228.57142857142858,-25C276.1904761904762,-22.708333333333332,295.2380952380953,40.208333333333336,342.8571428571429,45C390.4761904761905,49.791666666666664,409.5238095238095,2.583333333333333,457.14285714285717,-2C504.7619047619048,-6.583333333333333,523.8095238095239,28,571.4285714285714,23C619.047619047619,18,638.0952380952382,-26.625,685.7142857142858,-26C733.3333333333334,-25.375,776.1904761904761,15.166666666666668,800,26" transform="matrix(1,0,0,1,0,3924)"></path><path d="M10,10C31.726190476190478,15,68.75,41.291666666666664,114.28571428571429,34C159.82142857142858,26.708333333333336,180.95238095238096,-27.291666666666668,228.57142857142858,-25C276.1904761904762,-22.708333333333332,295.2380952380953,40.208333333333336,342.8571428571429,45C390.4761904761905,49.791666666666664,409.5238095238095,2.583333333333333,457.14285714285717,-2C504.7619047619048,-6.583333333333333,523.8095238095239,28,571.4285714285714,23C619.047619047619,18,638.0952380952382,-26.625,685.7142857142858,-26C733.3333333333334,-25.375,776.1904761904761,15.166666666666668,800,26" transform="matrix(1,0,0,1,0,3815)"></path><path d="M10,10C31.726190476190478,15,68.75,41.291666666666664,114.28571428571429,34C159.82142857142858,26.708333333333336,180.95238095238096,-27.291666666666668,228.57142857142858,-25C276.1904761904762,-22.708333333333332,295.2380952380953,40.208333333333336,342.8571428571429,45C390.4761904761905,49.791666666666664,409.5238095238095,2.583333333333333,457.14285714285717,-2C504.7619047619048,-6.583333333333333,523.8095238095239,28,571.4285714285714,23C619.047619047619,18,638.0952380952382,-26.625,685.7142857142858,-26C733.3333333333334,-25.375,776.1904761904761,15.166666666666668,800,26" transform="matrix(1,0,0,1,0,3706)"></path><path d="M10,10C31.726190476190478,15,68.75,41.291666666666664,114.28571428571429,34C159.82142857142858,26.708333333333336,180.95238095238096,-27.291666666666668,228.57142857142858,-25C276.1904761904762,-22.708333333333332,295.2380952380953,40.208333333333336,342.8571428571429,45C390.4761904761905,49.791666666666664,409.5238095238095,2.583333333333333,457.14285714285717,-2C504.7619047619048,-6.583333333333333,523.8095238095239,28,571.4285714285714,23C619.047619047619,18,638.0952380952382,-26.625,685.7142857142858,-26C733.3333333333334,-25.375,776.1904761904761,15.166666666666668,800,26" transform="matrix(1,0,0,1,0,3597)"></path><path d="M10,10C31.726190476190478,15,68.75,41.291666666666664,114.28571428571429,34C159.82142857142858,26.708333333333336,180.95238095238096,-27.291666666666668,228.57142857142858,-25C276.1904761904762,-22.708333333333332,295.2380952380953,40.208333333333336,342.8571428571429,45C390.4761904761905,49.791666666666664,409.5238095238095,2.583333333333333,457.14285714285717,-2C504.7619047619048,-6.583333333333333,523.8095238095239,28,571.4285714285714,23C619.047619047619,18,638.0952380952382,-26.625,685.7142857142858,-26C733.3333333333334,-25.375,776.1904761904761,15.166666666666668,800,26" transform="matrix(1,0,0,1,0,3488)"></path><path d="M10,10C31.726190476190478,15,68.75,41.291666666666664,114.28571428571429,34C159.82142857142858,26.708333333333336,180.95238095238096,-27.291666666666668,228.57142857142858,-25C276.1904761904762,-22.708333333333332,295.2380952380953,40.208333333333336,342.8571428571429,45C390.4761904761905,49.791666666666664,409.5238095238095,2.583333333333333,457.14285714285717,-2C504.7619047619048,-6.583333333333333,523.8095238095239,28,571.4285714285714,23C619.047619047619,18,638.0952380952382,-26.625,685.7142857142858,-26C733.3333333333334,-25.375,776.1904761904761,15.166666666666668,800,26" transform="matrix(1,0,0,1,0,3379)"></path><path d="M10,10C31.726190476190478,15,68.75,41.291666666666664,114.28571428571429,34C159.82142857142858,26.708333333333336,180.95238095238096,-27.291666666666668,228.57142857142858,-25C276.1904761904762,-22.708333333333332,295.2380952380953,40.208333333333336,342.8571428571429,45C390.4761904761905,49.791666666666664,409.5238095238095,2.583333333333333,457.14285714285717,-2C504.7619047619048,-6.583333333333333,523.8095238095239,28,571.4285714285714,23C619.047619047619,18,638.0952380952382,-26.625,685.7142857142858,-26C733.3333333333334,-25.375,776.1904761904761,15.166666666666668,800,26" transform="matrix(1,0,0,1,0,3270)"></path><path d="M10,10C31.726190476190478,15,68.75,41.291666666666664,114.28571428571429,34C159.82142857142858,26.708333333333336,180.95238095238096,-27.291666666666668,228.57142857142858,-25C276.1904761904762,-22.708333333333332,295.2380952380953,40.208333333333336,342.8571428571429,45C390.4761904761905,49.791666666666664,409.5238095238095,2.583333333333333,457.14285714285717,-2C504.7619047619048,-6.583333333333333,523.8095238095239,28,571.4285714285714,23C619.047619047619,18,638.0952380952382,-26.625,685.7142857142858,-26C733.3333333333334,-25.375,776.1904761904761,15.166666666666668,800,26" transform="matrix(1,0,0,1,0,3161)"></path><path d="M10,10C31.726190476190478,15,68.75,41.291666666666664,114.28571428571429,34C159.82142857142858,26.708333333333336,180.95238095238096,-27.291666666666668,228.57142857142858,-25C276.1904761904762,-22.708333333333332,295.2380952380953,40.208333333333336,342.8571428571429,45C390.4761904761905,49.791666666666664,409.5238095238095,2.583333333333333,457.14285714285717,-2C504.7619047619048,-6.583333333333333,523.8095238095239,28,571.4285714285714,23C619.047619047619,18,638.0952380952382,-26.625,685.7142857142858,-26C733.3333333333334,-25.375,776.1904761904761,15.166666666666668,800,26" transform="matrix(1,0,0,1,0,3052)"></path><path d="M10,10C31.726190476190478,15,68.75,41.291666666666664,114.28571428571429,34C159.82142857142858,26.708333333333336,180.95238095238096,-27.291666666666668,228.57142857142858,-25C276.1904761904762,-22.708333333333332,295.2380952380953,40.208333333333336,342.8571428571429,45C390.4761904761905,49.791666666666664,409.5238095238095,2.583333333333333,457.14285714285717,-2C504.7619047619048,-6.583333333333333,523.8095238095239,28,571.4285714285714,23C619.047619047619,18,638.0952380952382,-26.625,685.7142857142858,-26C733.3333333333334,-25.375,776.1904761904761,15.166666666666668,800,26" transform="matrix(1,0,0,1,0,2943)"></path><path d="M10,10C31.726190476190478,15,68.75,41.291666666666664,114.28571428571429,34C159.82142857142858,26.708333333333336,180.95238095238096,-27.291666666666668,228.57142857142858,-25C276.1904761904762,-22.708333333333332,295.2380952380953,40.208333333333336,342.8571428571429,45C390.4761904761905,49.791666666666664,409.5238095238095,2.583333333333333,457.14285714285717,-2C504.7619047619048,-6.583333333333333,523.8095238095239,28,571.4285714285714,23C619.047619047619,18,638.0952380952382,-26.625,685.7142857142858,-26C733.3333333333334,-25.375,776.1904761904761,15.166666666666668,800,26" transform="matrix(1,0,0,1,0,2834)"></path><path d="M10,10C31.726190476190478,15,68.75,41.291666666666664,114.28571428571429,34C159.82142857142858,26.708333333333336,180.95238095238096,-27.291666666666668,228.57142857142858,-25C276.1904761904762,-22.708333333333332,295.2380952380953,40.208333333333336,342.8571428571429,45C390.4761904761905,49.791666666666664,409.5238095238095,2.583333333333333,457.14285714285717,-2C504.7619047619048,-6.583333333333333,523.8095238095239,28,571.4285714285714,23C619.047619047619,18,638.0952380952382,-26.625,685.7142857142858,-26C733.3333333333334,-25.375,776.1904761904761,15.166666666666668,800,26" transform="matrix(1,0,0,1,0,2725)"></path><path d="M10,10C31.726190476190478,15,68.75,41.291666666666664,114.28571428571429,34C159.82142857142858,26.708333333333336,180.95238095238096,-27.291666666666668,228.57142857142858,-25C276.1904761904762,-22.708333333333332,295.2380952380953,40.208333333333336,342.8571428571429,45C390.4761904761905,49.791666666666664,409.5238095238095,2.583333333333333,457.14285714285717,-2C504.7619047619048,-6.583333333333333,523.8095238095239,28,571.4285714285714,23C619.047619047619,18,638.0952380952382,-26.625,685.7142857142858,-26C733.3333333333334,-25.375,776.1904761904761,15.166666666666668,800,26" transform="matrix(1,0,0,1,0,2616)"></path><path d="M10,10C31.726190476190478,15,68.75,41.291666666666664,114.28571428571429,34C159.82142857142858,26.708333333333336,180.95238095238096,-27.291666666666668,228.57142857142858,-25C276.1904761904762,-22.708333333333332,295.2380952380953,40.208333333333336,342.8571428571429,45C390.4761904761905,49.791666666666664,409.5238095238095,2.583333333333333,457.14285714285717,-2C504.7619047619048,-6.583333333333333,523.8095238095239,28,571.4285714285714,23C619.047619047619,18,638.0952380952382,-26.625,685.7142857142858,-26C733.3333333333334,-25.375,776.1904761904761,15.166666666666668,800,26" transform="matrix(1,0,0,1,0,2507)"></path><path d="M10,10C31.726190476190478,15,68.75,41.291666666666664,114.28571428571429,34C159.82142857142858,26.708333333333336,180.95238095238096,-27.291666666666668,228.57142857142858,-25C276.1904761904762,-22.708333333333332,295.2380952380953,40.208333333333336,342.8571428571429,45C390.4761904761905,49.791666666666664,409.5238095238095,2.583333333333333,457.14285714285717,-2C504.7619047619048,-6.583333333333333,523.8095238095239,28,571.4285714285714,23C619.047619047619,18,638.0952380952382,-26.625,685.7142857142858,-26C733.3333333333334,-25.375,776.1904761904761,15.166666666666668,800,26" transform="matrix(1,0,0,1,0,2398)"></path><path d="M10,10C31.726190476190478,15,68.75,41.291666666666664,114.28571428571429,34C159.82142857142858,26.708333333333336,180.95238095238096,-27.291666666666668,228.57142857142858,-25C276.1904761904762,-22.708333333333332,295.2380952380953,40.208333333333336,342.8571428571429,45C390.4761904761905,49.791666666666664,409.5238095238095,2.583333333333333,457.14285714285717,-2C504.7619047619048,-6.583333333333333,523.8095238095239,28,571.4285714285714,23C619.047619047619,18,638.0952380952382,-26.625,685.7142857142858,-26C733.3333333333334,-25.375,776.1904761904761,15.166666666666668,800,26" transform="matrix(1,0,0,1,0,2289)"></path><path d="M10,10C31.726190476190478,15,68.75,41.291666666666664,114.28571428571429,34C159.82142857142858,26.708333333333336,180.95238095238096,-27.291666666666668,228.57142857142858,-25C276.1904761904762,-22.708333333333332,295.2380952380953,40.208333333333336,342.8571428571429,45C390.4761904761905,49.791666666666664,409.5238095238095,2.583333333333333,457.14285714285717,-2C504.7619047619048,-6.583333333333333,523.8095238095239,28,571.4285714285714,23C619.047619047619,18,638.0952380952382,-26.625,685.7142857142858,-26C733.3333333333334,-25.375,776.1904761904761,15.166666666666668,800,26" transform="matrix(1,0,0,1,0,2180)"></path><path d="M10,10C31.726190476190478,15,68.75,41.291666666666664,114.28571428571429,34C159.82142857142858,26.708333333333336,180.95238095238096,-27.291666666666668,228.57142857142858,-25C276.1904761904762,-22.708333333333332,295.2380952380953,40.208333333333336,342.8571428571429,45C390.4761904761905,49.791666666666664,409.5238095238095,2.583333333333333,457.14285714285717,-2C504.7619047619048,-6.583333333333333,523.8095238095239,28,571.4285714285714,23C619.047619047619,18,638.0952380952382,-26.625,685.7142857142858,-26C733.3333333333334,-25.375,776.1904761904761,15.166666666666668,800,26" transform="matrix(1,0,0,1,0,2071)"></path><path d="M10,10C31.726190476190478,15,68.75,41.291666666666664,114.28571428571429,34C159.82142857142858,26.708333333333336,180.95238095238096,-27.291666666666668,228.57142857142858,-25C276.1904761904762,-22.708333333333332,295.2380952380953,40.208333333333336,342.8571428571429,45C390.4761904761905,49.791666666666664,409.5238095238095,2.583333333333333,457.14285714285717,-2C504.7619047619048,-6.583333333333333,523.8095238095239,28,571.4285714285714,23C619.047619047619,18,638.0952380952382,-26.625,685.7142857142858,-26C733.3333333333334,-25.375,776.1904761904761,15.166666666666668,800,26" transform="matrix(1,0,0,1,0,1962)"></path><path d="M10,10C31.726190476190478,15,68.75,41.291666666666664,114.28571428571429,34C159.82142857142858,26.708333333333336,180.95238095238096,-27.291666666666668,228.57142857142858,-25C276.1904761904762,-22.708333333333332,295.2380952380953,40.208333333333336,342.8571428571429,45C390.4761904761905,49.791666666666664,409.5238095238095,2.583333333333333,457.14285714285717,-2C504.7619047619048,-6.583333333333333,523.8095238095239,28,571.4285714285714,23C619.047619047619,18,638.0952380952382,-26.625,685.7142857142858,-26C733.3333333333334,-25.375,776.1904761904761,15.166666666666668,800,26" transform="matrix(1,0,0,1,0,1853)"></path><path d="M10,10C31.726190476190478,15,68.75,41.291666666666664,114.28571428571429,34C159.82142857142858,26.708333333333336,180.95238095238096,-27.291666666666668,228.57142857142858,-25C276.1904761904762,-22.708333333333332,295.2380952380953,40.208333333333336,342.8571428571429,45C390.4761904761905,49.791666666666664,409.5238095238095,2.583333333333333,457.14285714285717,-2C504.7619047619048,-6.583333333333333,523.8095238095239,28,571.4285714285714,23C619.047619047619,18,638.0952380952382,-26.625,685.7142857142858,-26C733.3333333333334,-25.375,776.1904761904761,15.166666666666668,800,26" transform="matrix(1,0,0,1,0,1744)"></path><path d="M10,10C31.726190476190478,15,68.75,41.291666666666664,114.28571428571429,34C159.82142857142858,26.708333333333336,180.95238095238096,-27.291666666666668,228.57142857142858,-25C276.1904761904762,-22.708333333333332,295.2380952380953,40.208333333333336,342.8571428571429,45C390.4761904761905,49.791666666666664,409.5238095238095,2.583333333333333,457.14285714285717,-2C504.7619047619048,-6.583333333333333,523.8095238095239,28,571.4285714285714,23C619.047619047619,18,638.0952380952382,-26.625,685.7142857142858,-26C733.3333333333334,-25.375,776.1904761904761,15.166666666666668,800,26" transform="matrix(1,0,0,1,0,1635)"></path><path d="M10,10C31.726190476190478,15,68.75,41.291666666666664,114.28571428571429,34C159.82142857142858,26.708333333333336,180.95238095238096,-27.291666666666668,228.57142857142858,-25C276.1904761904762,-22.708333333333332,295.2380952380953,40.208333333333336,342.8571428571429,45C390.4761904761905,49.791666666666664,409.5238095238095,2.583333333333333,457.14285714285717,-2C504.7619047619048,-6.583333333333333,523.8095238095239,28,571.4285714285714,23C619.047619047619,18,638.0952380952382,-26.625,685.7142857142858,-26C733.3333333333334,-25.375,776.1904761904761,15.166666666666668,800,26" transform="matrix(1,0,0,1,0,1526)"></path><path d="M10,10C31.726190476190478,15,68.75,41.291666666666664,114.28571428571429,34C159.82142857142858,26.708333333333336,180.95238095238096,-27.291666666666668,228.57142857142858,-25C276.1904761904762,-22.708333333333332,295.2380952380953,40.208333333333336,342.8571428571429,45C390.4761904761905,49.791666666666664,409.5238095238095,2.583333333333333,457.14285714285717,-2C504.7619047619048,-6.583333333333333,523.8095238095239,28,571.4285714285714,23C619.047619047619,18,638.0952380952382,-26.625,685.7142857142858,-26C733.3333333333334,-25.375,776.1904761904761,15.166666666666668,800,26" transform="matrix(1,0,0,1,0,1417)"></path><path d="M10,10C31.726190476190478,15,68.75,41.291666666666664,114.28571428571429,34C159.82142857142858,26.708333333333336,180.95238095238096,-27.291666666666668,228.57142857142858,-25C276.1904761904762,-22.708333333333332,295.2380952380953,40.208333333333336,342.8571428571429,45C390.4761904761905,49.791666666666664,409.5238095238095,2.583333333333333,457.14285714285717,-2C504.7619047619048,-6.583333333333333,523.8095238095239,28,571.4285714285714,23C619.047619047619,18,638.0952380952382,-26.625,685.7142857142858,-26C733.3333333333334,-25.375,776.1904761904761,15.166666666666668,800,26" transform="matrix(1,0,0,1,0,1308)"></path><path d="M10,10C31.726190476190478,15,68.75,41.291666666666664,114.28571428571429,34C159.82142857142858,26.708333333333336,180.95238095238096,-27.291666666666668,228.57142857142858,-25C276.1904761904762,-22.708333333333332,295.2380952380953,40.208333333333336,342.8571428571429,45C390.4761904761905,49.791666666666664,409.5238095238095,2.583333333333333,457.14285714285717,-2C504.7619047619048,-6.583333333333333,523.8095238095239,28,571.4285714285714,23C619.047619047619,18,638.0952380952382,-26.625,685.7142857142858,-26C733.3333333333334,-25.375,776.1904761904761,15.166666666666668,800,26" transform="matrix(1,0,0,1,0,1199)"></path><path d="M10,10C31.726190476190478,15,68.75,41.291666666666664,114.28571428571429,34C159.82142857142858,26.708333333333336,180.95238095238096,-27.291666666666668,228.57142857142858,-25C276.1904761904762,-22.708333333333332,295.2380952380953,40.208333333333336,342.8571428571429,45C390.4761904761905,49.791666666666664,409.5238095238095,2.583333333333333,457.14285714285717,-2C504.7619047619048,-6.583333333333333,523.8095238095239,28,571.4285714285714,23C619.047619047619,18,638.0952380952382,-26.625,685.7142857142858,-26C733.3333333333334,-25.375,776.1904761904761,15.166666666666668,800,26" transform="matrix(1,0,0,1,0,1090)"></path><path d="M10,10C31.726190476190478,15,68.75,41.291666666666664,114.28571428571429,34C159.82142857142858,26.708333333333336,180.95238095238096,-27.291666666666668,228.57142857142858,-25C276.1904761904762,-22.708333333333332,295.2380952380953,40.208333333333336,342.8571428571429,45C390.4761904761905,49.791666666666664,409.5238095238095,2.583333333333333,457.14285714285717,-2C504.7619047619048,-6.583333333333333,523.8095238095239,28,571.4285714285714,23C619.047619047619,18,638.0952380952382,-26.625,685.7142857142858,-26C733.3333333333334,-25.375,776.1904761904761,15.166666666666668,800,26" transform="matrix(1,0,0,1,0,981)"></path><path d="M10,10C31.726190476190478,15,68.75,41.291666666666664,114.28571428571429,34C159.82142857142858,26.708333333333336,180.95238095238096,-27.291666666666668,228.57142857142858,-25C276.1904761904762,-22.708333333333332,295.2380952380953,40.208333333333336,342.8571428571429,45C390.4761904761905,49.791666666666664,409.5238095238095,2.583333333333333,457.14285714285717,-2C504.7619047619048,-6.583333333333333,523.8095238095239,28,571.4285714285714,23C619.047619047619,18,638.0952380952382,-26.625,685.7142857142858,-26C733.3333333333334,-25.375,776.1904761904761,15.166666666666668,800,26" transform="matrix(1,0,0,1,0,872)"></path><path d="M10,10C31.726190476190478,15,68.75,41.291666666666664,114.28571428571429,34C159.82142857142858,26.708333333333336,180.95238095238096,-27.291666666666668,228.57142857142858,-25C276.1904761904762,-22.708333333333332,295.2380952380953,40.208333333333336,342.8571428571429,45C390.4761904761905,49.791666666666664,409.5238095238095,2.583333333333333,457.14285714285717,-2C504.7619047619048,-6.583333333333333,523.8095238095239,28,571.4285714285714,23C619.047619047619,18,638.0952380952382,-26.625,685.7142857142858,-26C733.3333333333334,-25.375,776.1904761904761,15.166666666666668,800,26" transform="matrix(1,0,0,1,0,763)"></path><path d="M10,10C31.726190476190478,15,68.75,41.291666666666664,114.28571428571429,34C159.82142857142858,26.708333333333336,180.95238095238096,-27.291666666666668,228.57142857142858,-25C276.1904761904762,-22.708333333333332,295.2380952380953,40.208333333333336,342.8571428571429,45C390.4761904761905,49.791666666666664,409.5238095238095,2.583333333333333,457.14285714285717,-2C504.7619047619048,-6.583333333333333,523.8095238095239,28,571.4285714285714,23C619.047619047619,18,638.0952380952382,-26.625,685.7142857142858,-26C733.3333333333334,-25.375,776.1904761904761,15.166666666666668,800,26" transform="matrix(1,0,0,1,0,654)"></path><path d="M10,10C31.726190476190478,15,68.75,41.291666666666664,114.28571428571429,34C159.82142857142858,26.708333333333336,180.95238095238096,-27.291666666666668,228.57142857142858,-25C276.1904761904762,-22.708333333333332,295.2380952380953,40.208333333333336,342.8571428571429,45C390.4761904761905,49.791666666666664,409.5238095238095,2.583333333333333,457.14285714285717,-2C504.7619047619048,-6.583333333333333,523.8095238095239,28,571.4285714285714,23C619.047619047619,18,638.0952380952382,-26.625,685.7142857142858,-26C733.3333333333334,-25.375,776.1904761904761,15.166666666666668,800,26" transform="matrix(1,0,0,1,0,545)"></path><path d="M10,10C31.726190476190478,15,68.75,41.291666666666664,114.28571428571429,34C159.82142857142858,26.708333333333336,180.95238095238096,-27.291666666666668,228.57142857142858,-25C276.1904761904762,-22.708333333333332,295.2380952380953,40.208333333333336,342.8571428571429,45C390.4761904761905,49.791666666666664,409.5238095238095,2.583333333333333,457.14285714285717,-2C504.7619047619048,-6.583333333333333,523.8095238095239,28,571.4285714285714,23C619.047619047619,18,638.0952380952382,-26.625,685.7142857142858,-26C733.3333333333334,-25.375,776.1904761904761,15.166666666666668,800,26" transform="matrix(1,0,0,1,0,436)"></path><path d="M10,10C31.726190476190478,15,68.75,41.291666666666664,114.28571428571429,34C159.82142857142858,26.708333333333336,180.95238095238096,-27.291666666666668,228.57142857142858,-25C276.1904761904762,-22.708333333333332,295.2380952380953,40.208333333333336,342.8571428571429,45C390.4761904761905,49.791666666666664,409.5238095238095,2.583333333333333,457.14285714285717,-2C504.7619047619048,-6.583333333333333,523.8095238095239,28,571.4285714285714,23C619.047619047619,18,638.0952380952382,-26.625,685.7142857142858,-26C733.3333333333334,-25.375,776.1904761904761,15.166666666666668,800,26" transform="matrix(1,0,0,1,0,327)"></path><path d="M10,10C31.726190476190478,15,68.75,41.291666666666664,114.28571428571429,34C159.82142857142858,26.708333333333336,180.95238095238096,-27.291666666666668,228.57142857142858,-25C276.1904761904762,-22.708333333333332,295.2380952380953,40.208333333333336,342.8571428571429,45C390.4761904761905,49.791666666666664,409.5238095238095,2.583333333333333,457.14285714285717,-2C504.7619047619048,-6.583333333333333,523.8095238095239,28,571.4285714285714,23C619.047619047619,18,638.0952380952382,-26.625,685.7142857142858,-26C733.3333333333334,-25.375,776.1904761904761,15.166666666666668,800,26" transform="matrix(1,0,0,1,0,218)"></path><path d="M10,10C31.726190476190478,15,68.75,41.291666666666664,114.28571428571429,34C159.82142857142858,26.708333333333336,180.95238095238096,-27.291666666666668,228.57142857142858,-25C276.1904761904762,-22.708333333333332,295.2380952380953,40.208333333333336,342.8571428571429,45C390.4761904761905,49.791666666666664,409.5238095238095,2.583333333333333,457.14285714285717,-2C504.7619047619048,-6.583333333333333,523.8095238095239,28,571.4285714285714,23C619.047619047619,18,638.0952380952382,-26.625,685.7142857142858,-26C733.3333333333334,-25.375,776.1904761904761,15.166666666666668,800,26" transform="matrix(1,0,0,1,0,109)"></path></g></svg>